<?xml version="1.0" standalone="no"?>
<!DOCTYPE svg PUBLIC "-//W3C//DTD SVG 20010904//EN"
 "http://www.w3.org/TR/2001/REC-SVG-20010904/DTD/svg10.dtd">
<svg version="1.0" xmlns="http://www.w3.org/2000/svg"
 width="1024.000000pt" height="1024.000000pt" viewBox="0 0 1024.000000 1024.000000"
 preserveAspectRatio="xMidYMid meet">
<metadata>
Created by potrace 1.14, written by Peter Selinger 2001-2017
</metadata>
<g transform="translate(0.000000,1024.000000) scale(0.100000,-0.100000)"
fill="#000000" stroke="none">
<path d="M1046 9969 c-169 -25 -355 -94 -487 -181 -308 -203 -497 -501 -549
-863 -13 -96 -13 -7514 0 -7610 52 -362 241 -660 549 -863 103 -68 211 -115
361 -156 l115 -31 4030 -3 c2796 -2 4055 1 4112 8 381 50 708 267 903 600 50
86 94 198 128 324 l27 101 3 3770 c2 2614 -1 3795 -8 3852 -31 237 -119 440
-275 630 -159 195 -394 339 -663 406 l-87 21 -4050 2 c-2227 1 -4076 -2 -4109
-7z m2669 -849 c108 -28 162 -60 370 -225 99 -78 515 -406 925 -730 410 -324
799 -632 866 -685 67 -52 238 -187 380 -300 225 -177 1199 -947 1444 -1141
504 -397 519 -410 563 -468 49 -64 102 -181 117 -258 13 -63 11 -111 -9 -323
-20 -211 -93 -344 -264 -478 -34 -27 -334 -260 -667 -518 -1001 -777 -1849
-1436 -2130 -1654 -1120 -871 -1440 -1118 -1488 -1146 -217 -131 -511 -102
-697 68 -53 48 -366 442 -412 518 -12 19 -34 71 -49 115 -23 68 -27 96 -27
185 1 174 60 316 180 431 26 26 392 313 813 640 421 326 974 756 1230 954 366
285 970 754 1271 987 30 23 32 28 19 41 -8 8 -458 365 -1000 793 -2028 1602
-2265 1790 -2304 1829 -104 106 -156 227 -163 385 -9 182 27 281 163 455 300
386 342 430 470 490 118 56 266 69 399 35z"/>
</g>
</svg>
